<svg xmlns="http://www.w3.org/2000/svg" width="2038" height="2048" viewBox="0 0 2038 2048">
  <g fill="#49c4b0" fill-rule="evenodd" stroke="none">
    <path d="M 0.00,994.50 L 5.50,905.00 L 12.50,855.00 L 27.50,781.00 L 55.50,686.00 L 87.50,605.00 L 131.50,518.00 L 158.50,473.00 L 192.50,423.00 L 256.50,343.00 L 319.00,278.50 L 382.00,223.50 L 463.00,164.50 L 544.00,116.50 L 617.00,81.50 L 714.00,45.50 L 810.00,20.50 L 904.00,5.50 L 948.00,1.50 L 1002.50,0.00 Z M 1013.50,0.00 L 923.00,216.50 L 888.00,220.50 L 833.00,231.50 L 791.00,242.50 L 719.00,267.50 L 680.00,284.50 L 613.00,319.50 L 555.00,356.50 L 523.00,380.50 L 470.00,425.50 L 425.50,470.00 L 367.50,540.00 L 335.50,587.00 L 306.50,636.00 L 277.50,695.00 L 256.50,748.00 L 241.50,794.00 L 228.50,844.00 L 217.50,902.00 L 210.50,966.00 L 210.50,1082.00 L 217.50,1145.00 L 228.50,1204.00 L 242.50,1257.00 L 260.50,1311.00 L 289.50,1379.00 L 310.50,1419.00 L 364.50,1504.00 L 407.50,1558.00 L 451.00,1604.50 L 490.00,1640.50 L 528.00,1671.50 L 603.00,1722.50 L 640.00,1743.50 L 700.00,1772.50 L 754.00,1793.50 L 792.00,1805.50 L 866.00,1823.50 L 966.00,1836.50 L 1071.00,1836.50 L 1137.00,1829.50 L 1177.00,1822.50 L 1259.00,1801.50 L 1321.00,1779.50 L 1366.00,1759.50 L 1446.00,1715.50 L 1521.00,1662.50 L 1584.00,1606.50 L 1651.50,1532.00 L 1683.50,1489.00 L 1711.50,1446.00 L 1754.50,1365.00 L 1775.50,1315.00 L 1790.50,1272.00 L 1811.50,1193.00 L 1822.50,1127.00 L 1828.50,1040.00 L 1826.50,960.00 L 1815.50,876.00 L 1797.50,799.00 L 1768.50,715.00 L 1744.50,662.00 L 1714.50,607.00 L 1662.50,530.00 L 1633.50,494.00 L 1597.50,455.00 L 1562.00,420.50 L 1521.00,385.50 L 1468.00,346.50 L 1438.00,327.50 L 1396.00,303.50 L 1342.00,277.50 L 1300.00,260.50 L 1246.00,242.50 L 1192.00,228.50 L 1140.50,219.00 L 1229.00,21.50 L 1286.00,34.50 L 1370.00,61.50 L 1449.00,94.50 L 1524.00,133.50 L 1594.00,177.50 L 1662.00,228.50 L 1722.00,281.50 L 1784.50,347.00 L 1844.50,422.00 L 1884.50,482.00 L 1927.50,558.00 L 1963.50,637.00 L 1995.50,728.00 L 2016.50,810.00 L 2030.50,893.00 L 2037.00,970.50 Z M 1019.00,1644.50 L 938.00,1639.50 L 878.00,1628.50 L 828.00,1614.50 L 764.00,1589.50 L 708.00,1560.50 L 655.00,1525.50 L 606.00,1485.50 L 561.50,1441.00 L 521.50,1392.00 L 486.50,1339.00 L 463.50,1296.00 L 436.50,1232.00 L 418.50,1171.00 L 407.50,1114.00 L 402.50,1065.00 L 402.50,984.00 L 407.50,934.00 L 414.50,895.00 L 425.50,851.00 L 439.50,808.00 L 454.50,771.00 L 479.50,721.00 L 506.50,677.00 L 537.50,635.00 L 574.50,593.00 L 608.00,560.50 L 676.00,507.50 L 751.00,464.50 L 792.00,446.50 L 834.00,432.50 L 699.50,760.00 L 665.50,809.00 L 647.50,842.00 L 629.50,885.00 L 615.50,933.00 L 608.50,973.00 L 606.50,999.00 L 608.50,1074.00 L 622.50,1142.00 L 633.50,1174.00 L 654.50,1220.00 L 678.50,1259.00 L 704.50,1293.00 L 737.00,1327.50 L 777.00,1360.50 L 814.00,1384.50 L 858.00,1406.50 L 896.00,1420.50 L 945.00,1432.50 L 993.00,1438.50 L 1044.00,1438.50 L 1098.00,1431.50 L 1128.00,1424.50 L 1159.00,1414.50 L 1209.00,1392.50 L 1255.00,1364.50 L 1288.00,1338.50 L 1323.50,1304.00 L 1356.50,1263.00 L 1378.50,1228.00 L 1402.50,1178.00 L 1420.50,1121.00 L 1428.50,1077.00 L 1431.50,1046.00 L 1429.50,980.00 L 1421.50,931.00 L 1410.50,892.00 L 1392.50,847.00 L 1368.50,803.00 L 1336.50,759.00 L 1295.00,715.50 L 1259.00,686.50 L 1222.00,662.50 L 1193.00,647.50 L 1148.00,629.50 L 1084.00,614.50 L 993.50,809.00 L 1039.00,809.50 L 1059.00,812.50 L 1086.00,819.50 L 1119.00,833.50 L 1151.00,854.50 L 1181.50,884.00 L 1202.50,913.00 L 1213.50,934.00 L 1224.50,964.00 L 1231.50,999.00 L 1232.50,1036.00 L 1227.50,1073.00 L 1216.50,1107.00 L 1203.50,1133.00 L 1185.50,1159.00 L 1159.00,1186.50 L 1122.00,1212.50 L 1094.00,1225.50 L 1064.00,1234.50 L 1037.00,1238.50 L 1001.00,1238.50 L 958.00,1230.50 L 931.00,1220.50 L 899.00,1202.50 L 861.50,1170.00 L 841.50,1145.00 L 830.50,1127.00 L 816.50,1095.00 L 809.50,1071.00 L 805.50,1046.00 L 805.50,1003.00 L 812.50,974.00 L 834.50,912.00 L 894.50,769.00 L 1052.50,414.00 L 1057.00,405.50 L 1068.00,405.50 L 1136.00,414.50 L 1183.00,425.50 L 1250.00,448.50 L 1308.00,475.50 L 1357.00,504.50 L 1401.00,536.50 L 1439.00,569.50 L 1488.50,621.00 L 1518.50,659.00 L 1554.50,715.00 L 1578.50,761.00 L 1603.50,823.00 L 1618.50,875.00 L 1629.50,931.00 L 1634.50,978.00 L 1635.50,1050.00 L 1629.50,1117.00 L 1618.50,1173.00 L 1600.50,1233.00 L 1582.50,1278.00 L 1553.50,1335.00 L 1517.50,1390.00 L 1472.50,1445.00 L 1435.00,1482.50 L 1392.00,1518.50 L 1336.00,1556.50 L 1282.00,1585.50 L 1240.00,1603.50 L 1186.00,1621.50 L 1141.00,1632.50 L 1079.00,1641.50 L 1019.00,1644.50 Z M 971.50,2047.00 L 895.00,2041.50 L 792.00,2023.50 L 711.00,2001.50 L 608.00,1962.50 L 510.00,1912.50 L 421.00,1854.50 L 344.00,1792.50 L 284.50,1735.00 L 216.50,1657.00 L 164.50,1584.00 L 131.50,1530.00 L 109.50,1489.00 L 73.50,1410.00 L 45.50,1332.00 L 20.50,1236.00 L 5.50,1142.00 L 0.00,1053.50 Z M 2037.00,1077.50 L 2030.50,1155.00 L 2012.50,1256.00 L 1987.50,1346.00 L 1948.50,1446.00 L 1902.50,1536.00 L 1853.50,1613.00 L 1790.50,1694.00 L 1729.00,1759.50 L 1657.00,1823.50 L 1579.00,1880.50 L 1508.00,1923.50 L 1413.00,1969.50 L 1326.00,2001.50 L 1232.00,2026.50 L 1142.00,2041.50 L 1065.50,2047.00 Z"/>
  </g>
</svg>